<svg viewBox="0 0 151 151" fill="none" xmlns="http://www.w3.org/2000/svg">
<rect x="0.756836" y="0.5" width="150" height="150" rx="75" fill="#5C2966"/>
<rect x="16.7568" y="16.5" width="118" height="118" rx="59" fill="#F6ECFB"/>
<rect x="16.7568" y="16.5" width="118" height="118" rx="59" stroke="#9D42B7" stroke-width="7"/>
<path d="M57.6938 45.4331L87.2934 44.7129C90.8083 44.9285 98.0069 47.6376 98.6832 56.7493C98.6832 65.5427 98.6832 86.276 98.6832 95.5434C98.7662 97.4334 97.9671 101.144 94.1075 100.865C90.0889 100.865 88.1225 100.865 87.6419 100.865" fill="#5C2966"/>
<path d="M57.6938 45.4331L87.2934 44.7129C90.8083 44.9285 98.0069 47.6376 98.6832 56.7493C98.6832 65.5427 98.6832 86.276 98.6832 95.5434C98.7662 97.4334 97.9671 101.144 94.1075 100.865C90.0889 100.865 88.1225 100.865 87.6419 100.865" stroke="#4F165A" stroke-width="6"/>
<path d="M76.8423 49.1239L63.1064 46.576C61.6463 46.2585 59.1029 45.6928 57.463 45.376C53.6331 44.8775 53.9893 48.8342 53.9833 51.0603C53.9491 63.7507 53.9013 90.2617 53.9833 94.7826C54.0653 99.3037 57.5027 101.083 59.2111 101.407C64.7124 102.562 76.6988 105.076 80.6351 105.892C84.5713 106.707 86.5805 102.834 87.093 100.796C87.5031 88.7356 88.0771 63.4127 87.093 58.6023C86.109 53.7917 83.3864 50.71 76.8423 49.1239Z" fill="#9D42B7" stroke="#4F165A" stroke-width="6" stroke-linecap="round" stroke-linejoin="round"/>
<path d="M82.0795 79.9198C81.923 78.5129 80.9066 78.5529 80.158 78.5529C79.637 78.5523 78.5759 78.6957 78.237 79.9198C77.8983 81.144 79.5289 81.5157 80.3865 81.5484C81.016 81.5917 82.2361 81.3266 82.0795 79.9198Z" fill="white" stroke="white" stroke-linecap="round"/>
<path d="M60.3912 63.4457C60.7896 59.8603 58.6391 51.2561 64.8924 54.3636" stroke="white" stroke-width="3" stroke-linecap="round"/>
</svg>
