<svg viewBox="0 0 83 84" fill="none" xmlns="http://www.w3.org/2000/svg">
<path d="M64.5325 76.8268L64.6456 76.9426L64.7696 77.0465C67.133 79.0266 69.6303 80.1272 72.1277 80.0464C74.6977 79.9632 76.6997 78.6453 77.9653 76.9457C79.1913 75.2995 79.7881 73.2409 79.7383 71.2777C79.6897 69.3626 79.0032 67.2223 77.2712 65.6847L53.6308 41.4335L75.4704 19.168C75.4721 19.1663 75.4738 19.1645 75.4755 19.1628C77.6476 16.9668 78.881 14.4757 78.8873 11.9105C78.8938 9.31663 77.6368 7.15499 75.8467 5.77312C72.3533 3.07633 66.7771 3.24269 63.249 7.6089L41.8618 29.2212L18.8455 6.45629L18.7817 6.39319L18.7145 6.3337C16.5941 4.45625 14.1878 3.51657 11.746 3.75884C9.35007 3.99656 7.45333 5.32165 6.21486 6.91489C3.99882 9.76573 3.00571 15.0498 6.83655 18.329L29.6457 41.7464L5.93141 65.7669L5.85685 65.8424L5.78737 65.9227C3.9337 68.0632 3.01721 70.4834 3.31277 72.9327C3.60225 75.3317 4.98803 77.1906 6.59921 78.3878C8.19776 79.5757 10.2124 80.2717 12.2229 80.2782C14.2224 80.2847 16.4195 79.5911 18.0136 77.764L41.8726 53.6402L64.5325 76.8268Z" fill="#33DF9E" stroke="#4F1959" stroke-width="6.5"/>
</svg>
